# xmcd
#
# Track frame offsets:
#	150
#	15515
#	29642
#	41468
#	48062
#	66127
#	84584
#	104177
#	122770
#	136599
#	157403
#	177752
#	198103
#
# Disc length: 2963 seconds
#
# Revision: 0
# Processed by: cddbd v1.5.2PL0 Copyright (c) Steve Scherf et al.
# Submitted via: EasyCDDAExtractor 10.5.1.1
#
DISCID=aa0b910d
DTITLE=All Angels - Into Paradise
DYEAR=2007
DGENRE=Ballad
TTITLE0=Sancte Deus (Nimrod)
TTITLE1=In Paradisum
TTITLE2=Make Me A Channel Of Your Peace
TTITLE3=Swing Low
TTITLE4=The Scientist
TTITLE5=Sound Of Silence
TTITLE6=Lament (Band Of Brothers)
TTITLE7=Lift Up Your Voice
TTITLE8=Sull' Aria
TTITLE9=Pie Jesu
TTITLE10=Singing You Through
TTITLE11=Nothing Compares To You
TTITLE12=Zadok The Priest
EXTD=
EXTT0=
EXTT1=
EXTT2=
EXTT3=
EXTT4=
EXTT5=
EXTT6=
EXTT7=
EXTT8=
EXTT9=
EXTT10=
EXTT11=
EXTT12=
PLAYORDER=
